<?xml version="1.0" encoding="UTF-8"?>
<svg id="Ebene_1" data-name="Ebene 1" xmlns="http://www.w3.org/2000/svg" viewBox="0 0 1125.85 134.81">
  <defs>
    <style>
      .cls-1 {
        fill: #494d4d;
      }

      .cls-2 {
        fill: #5fa6aa;
      }
    </style>
  </defs>
  <path class="cls-2" d="M301.55,37.56c.79.13,1.06.53,1.06,1.19v3.18c0,.79-.4,1.19-1.19,1.19h-23.42c-5.42,0-13.36,1.32-13.36,9v2.51c0,5.43,1.46,8.6,9,11.78l20.11,8.33c10.19,4.23,11.78,9.92,11.78,16.67v1.85c0,12.83-6.88,15.88-25.27,15.88-6.48,0-18.92-.4-22.23-.79-.93-.13-1.06-.53-1.06-1.19v-3.04c0-.79.4-1.32,1.19-1.32h22.23c13.76,0,18.13-1.98,18.13-9.53v-1.99c0-4.76-1.72-8.07-8.07-10.85l-20.77-8.47c-10.06-4.23-12.04-10.06-12.04-17.47v-2.91c0-13.76,13.36-14.82,22.49-14.82,4.1,0,15.61.13,21.43.79ZM375.65,37.69c.79,0,1.32.4,1.32,1.19v67.08c-.13,22.49-5.03,28.85-28.45,28.85-6.75,0-11.91-.13-18-.66-.79,0-1.19-.53-1.19-1.32v-3.04c0-.79.4-1.32,1.19-1.32h18c17.6,0,21.3-4.37,21.3-19.05v-1.59c-9.13,1.06-14.69,1.32-20.91,1.32-23.68,0-27.52-7.14-27.52-36.65v-33.61c0-.79.53-1.19,1.32-1.19h4.5c.79,0,1.32.4,1.32,1.19v33.48c0,24.48,2.25,30.43,20.38,30.43,5.82,0,11.91-.13,20.91-1.46v-62.45c0-.79.53-1.19,1.32-1.19h4.5ZM438.5,37.56c.79.13,1.06.53,1.06,1.19v3.18c0,.79-.4,1.19-1.19,1.19h-23.42c-5.42,0-13.36,1.32-13.36,9v2.51c0,5.43,1.46,8.6,9,11.78l20.11,8.33c10.19,4.23,11.78,9.92,11.78,16.67v1.85c0,12.83-6.88,15.88-25.27,15.88-6.48,0-18.92-.4-22.23-.79-.93-.13-1.06-.53-1.06-1.19v-3.04c0-.79.4-1.32,1.19-1.32h22.23c13.76,0,18.13-1.98,18.13-9.53v-1.99c0-4.76-1.72-8.07-8.07-10.85l-20.77-8.47c-10.06-4.23-12.04-10.06-12.04-17.47v-2.91c0-13.76,13.36-14.82,22.49-14.82,4.1,0,15.61.13,21.43.79ZM464.71,10.44c.79,0,1.32.53,1.32,1.32v51.73l26.07-25.01c.66-.66,1.32-.79,2.38-.79h6.09c1.46,0,1.46.79.66,1.59l-27.52,25.93,35.59,41.41c.66.79.53,1.85-1.46,1.85h-4.9c-.79,0-1.72-.27-2.25-1.06l-34.67-40.75v40.49c0,.93-.53,1.32-1.32,1.32h-4.5c-.79,0-1.19-.4-1.19-1.32V11.76c0-.79.4-1.32,1.19-1.32h4.5ZM571.49,72.89c0,28.85-5.16,36.25-28.45,36.25s-28.45-7.41-28.45-36.25,5.29-36.12,28.45-36.12,28.45,7.41,28.45,36.12ZM521.74,72.89c0,23.82,3.44,29.9,21.3,29.9s21.43-6.09,21.43-29.9-3.44-29.77-21.43-29.77-21.3,6.09-21.3,29.77ZM684.49,65.88l-.13,41.41c0,.79-.4,1.19-1.19,1.19h-4.5c-.79,0-1.19-.4-1.19-1.19v-41.41c0-20.77-5.95-22.76-19.58-22.76-7.41,0-14.82.66-19.98,1.85,2.38,4.1,3.44,10.19,3.44,19.45l-.13,42.87c0,.93-.4,1.19-1.06,1.19h-4.63c-.79,0-1.19-.4-1.19-1.19v-42.87c0-20.64-5.95-21.3-19.58-21.3h-17.86v64.17c0,.79-.4,1.19-1.19,1.19h-4.63c-.79,0-1.19-.4-1.19-1.19V39.55c0-.93.4-1.19,1.46-1.32,7.81-1.06,14.95-1.46,22.49-1.46s15.08,1.06,19.58,3.57c6.62-2.12,15.75-3.57,23.55-3.57,19.58,0,27.52,3.31,27.52,29.11ZM760.05,73.55c0,28.84-3.84,35.59-29.64,35.59-6.22,0-11.91-.26-18.79-.66v24.35c0,.79-.4,1.32-1.19,1.32h-4.63c-.79,0-1.19-.53-1.19-1.32V39.81c0-1.06.4-1.72,1.59-1.98,12.83-.93,18.66-1.06,26.46-1.06,23.55,0,27.39,7.28,27.39,36.78ZM711.62,43.12v59.01c6.09.53,12.7.66,18.79.66,20.24,0,22.63-5.42,22.63-29.24s-2.25-30.43-20.38-30.43h-21.04Z"/>
  <g>
    <path class="cls-2" d="M109.78,18.3H3.21C1.44,18.3,0,16.86,0,15.09h0C0,6.76,6.76,0,15.09,0h94.69v18.3ZM109.78,36.59H5.03C2.25,36.59,0,38.85,0,41.62v8.24C0,52.64,2.25,54.89,5.03,54.89h80.6c3.23,0,5.85,2.62,5.85,5.85v24.88c0,3.23-2.62,5.85-5.85,5.85H3.21C1.44,91.48,0,92.92,0,94.69H0c0,8.33,6.76,15.09,15.09,15.09h94.69V36.59Z"/>
    <path class="cls-1" d="M109.78,0h94.69c8.33,0,15.09,6.76,15.09,15.09h0c0,1.77-1.44,3.21-3.21,3.21h-106.57V0ZM214.53,36.59h-44.83c-2.78,0-5.03,2.25-5.03,5.03v8.24c0,2.78,2.25,5.03,5.03,5.03h25.71c3.23,0,5.85,2.62,5.85,5.85v24.88c0,3.23-2.62,5.85-5.85,5.85h-61.48c-3.23,0-5.85-2.62-5.85-5.85v-44c0-2.78-2.25-5.03-5.03-5.03h-13.27v73.19h0s91.48,0,91.48,0c10.1,0,18.3-8.19,18.3-18.3v-49.86c0-2.78-2.25-5.03-5.03-5.03Z"/>
  </g>
  <path class="cls-1" d="M861.64,38.27c1.17.13,1.56.91,1.56,1.95v65.61c-.13,21.74-5.08,27.86-27.86,27.86-5.34,0-11.46-.13-17.44-.65-.78,0-1.17-.52-1.17-1.3v-2.99c0-.78.39-1.3,1.17-1.3h17.44c17.18,0,20.96-4.3,20.96-18.74v-1.04c-6.77.65-12.37.78-18.48.78-25.38,0-29.16-6.64-29.16-35.02s3.77-36.19,26.95-36.19c8.98,0,16.14.39,26.03,1.04ZM835.6,43.48c-17.83,0-20.05,5.73-20.05,29.94s2.34,28.77,22.26,28.77c5.99,0,12.5-.13,18.48-.65v-58.06h-20.7ZM913.05,38.14c.78.26,1.04.65,1.04,1.3v2.86c0,.78-.52,1.3-1.3,1.17h-11.59c-4.95,0-11.07.65-11.07,7.55v55.58c0,.78-.39,1.17-1.17,1.17h-4.56c-.78,0-1.17-.39-1.17-1.17v-56.62c0-12.63,12.63-12.76,16.79-12.76,3.38,0,10.54.39,13.02.91ZM978.65,72.77c0,28.38-5.08,35.67-27.99,35.67s-27.99-7.29-27.99-35.67,5.21-35.54,27.99-35.54,27.99,7.29,27.99,35.54ZM929.7,72.77c0,23.43,3.39,29.42,20.96,29.42s21.09-5.99,21.09-29.42-3.39-29.29-21.09-29.29-20.96,5.99-20.96,29.29ZM1049.84,38.14c.78,0,1.17.39,1.17,1.17v66.52c0,.78-.39,1.04-1.43,1.3-9.24,1.3-19,1.3-26.29,1.3-19.26,0-27.08-3.26-27.08-28.51v-40.61c0-.78.52-1.17,1.3-1.17h4.43c.78,0,1.17.39,1.17,1.17v40.61c0,20.31,5.86,22.26,19.26,22.26h21.74v-62.87c0-.78.39-1.17,1.17-1.17h4.56ZM1125.85,73.42c0,28.38-3.78,35.02-29.16,35.02-6.12,0-11.72-.26-18.48-.65v23.95c0,.78-.39,1.3-1.17,1.3h-4.56c-.78,0-1.17-.52-1.17-1.3V40.23c0-1.04.39-1.69,1.56-1.95,12.63-.91,18.35-1.04,26.03-1.04,23.17,0,26.95,7.16,26.95,36.19ZM1078.21,43.48v58.06c5.99.52,12.5.65,18.48.65,19.92,0,22.26-5.34,22.26-28.77s-2.21-29.94-20.05-29.94h-20.7Z"/>
</svg>